<svg xmlns="http://www.w3.org/2000/svg" width="1200" height="500" viewBox="0 0 1200 500" role="img" aria-label="ovws live GitHub source repository signals" data-mode="light">
  <defs>
    <linearGradient id="bg" x1="0" y1="0" x2="1" y2="1"><stop stop-color="#F7FCFE"/><stop offset="1" stop-color="#EDF8FB"/></linearGradient>
    <linearGradient id="accent" x1="0" y1="0" x2="1" y2="0"><stop stop-color="#009FC7"/><stop offset=".55" stop-color="#159A62"/><stop offset="1" stop-color="#E83E8C"/></linearGradient>
    <pattern id="grid" width="28" height="28" patternUnits="userSpaceOnUse"><path d="M28 0H0V28" fill="none" stroke="#D8EBF0" stroke-width="1"/></pattern>
    <filter id="glow" x="-100%" y="-100%" width="300%" height="300%"><feGaussianBlur stdDeviation="5" result="b"/><feMerge><feMergeNode in="b"/><feMergeNode in="SourceGraphic"/></feMerge></filter>
    <clipPath id="frame"><rect x="1" y="1" width="1198" height="498" rx="18"/></clipPath>
  </defs>
  <style>
    text{font-family:ui-monospace,SFMono-Regular,Menlo,Monaco,Consolas,"Liberation Mono",monospace}
    .title{font-size:15px;font-weight:800;letter-spacing:3px}.micro{font-size:10px;font-weight:700;letter-spacing:2px}.tiny{font-size:9px;letter-spacing:1px}
    .metric{font-size:34px;font-weight:900;letter-spacing:-1px}.row{font-size:11px;font-weight:700;letter-spacing:1px}.repo{font-size:13px;font-weight:800}
    .pulse{transform-box:fill-box;transform-origin:center;animation:pulse 2s ease-in-out infinite}.scan{animation:scan 6s linear infinite}.bar{transform-box:fill-box;transform-origin:left;animation:grow .9s cubic-bezier(.2,.8,.2,1) both}.boot{animation:boot .6s ease-out both}
    @keyframes pulse{50%{opacity:.3;transform:scale(.65)}}@keyframes scan{from{transform:translateY(-70px)}to{transform:translateY(570px)}}@keyframes grow{from{transform:scaleX(.06)}}@keyframes boot{from{opacity:.45}}
    @media(prefers-reduced-motion:reduce){.pulse,.scan,.bar,.boot{animation:none}}
  </style>
  <g clip-path="url(#frame)">
    <rect width="1200" height="500" fill="url(#bg)"/><rect width="1200" height="500" fill="url(#grid)" opacity=".62"/>
    <path d="M0 0H1200" stroke="url(#accent)" stroke-width="3"/>
    <rect class="scan" x="0" y="-70" width="1200" height="70" fill="url(#accent)" opacity=".025"/>
    <text x="28" y="38" class="title" fill="#009FC7">LIVE SIGNALS // SOURCE CONTROL</text>
    <g transform="translate(956 31)"><circle class="pulse" r="5" fill="#159A62" filter="url(#glow)"/><text x="14" y="4" class="micro" fill="#159A62">FORK FILTER: ON</text></g>
    <path d="M28 54H1172" stroke="#A7C8D2"/>
    <g class="boot" style="animation-delay:0.0s" transform="translate(28 78)">
      <rect width="267" height="100" rx="12" fill="#FFFFFF" stroke="#A7C8D2"/>
      <path d="M0 12Q0 0 12 0H267" fill="none" stroke="#009FC7" stroke-width="2"/>
      <text x="18" y="28" class="micro" fill="#557581">SOURCE REPOS</text>
      <text x="18" y="68" class="metric" fill="#009FC7">698</text>
      <text x="249" y="68" text-anchor="end" class="tiny" fill="#557581">forks excluded</text>
      <circle class="pulse" cx="249" cy="22" r="3" fill="#009FC7"/>
    </g><g class="boot" style="animation-delay:0.12s" transform="translate(317 78)">
      <rect width="267" height="100" rx="12" fill="#FFFFFF" stroke="#A7C8D2"/>
      <path d="M0 12Q0 0 12 0H267" fill="none" stroke="#E83E8C" stroke-width="2"/>
      <text x="18" y="28" class="micro" fill="#557581">LANGUAGE NODES</text>
      <text x="18" y="68" class="metric" fill="#E83E8C">670</text>
      <text x="249" y="68" text-anchor="end" class="tiny" fill="#557581">primary stacks</text>
      <circle class="pulse" cx="249" cy="22" r="3" fill="#E83E8C"/>
    </g><g class="boot" style="animation-delay:0.24s" transform="translate(606 78)">
      <rect width="267" height="100" rx="12" fill="#FFFFFF" stroke="#A7C8D2"/>
      <path d="M0 12Q0 0 12 0H267" fill="none" stroke="#159A62" stroke-width="2"/>
      <text x="18" y="28" class="micro" fill="#557581">ACTIVE / 2026</text>
      <text x="18" y="68" class="metric" fill="#159A62">666</text>
      <text x="249" y="68" text-anchor="end" class="tiny" fill="#557581">recently pushed</text>
      <circle class="pulse" cx="249" cy="22" r="3" fill="#159A62"/>
    </g><g class="boot" style="animation-delay:0.36s" transform="translate(895 78)">
      <rect width="267" height="100" rx="12" fill="#FFFFFF" stroke="#A7C8D2"/>
      <path d="M0 12Q0 0 12 0H267" fill="none" stroke="#C27B00" stroke-width="2"/>
      <text x="18" y="28" class="micro" fill="#557581">LATEST PUSH</text>
      <text x="18" y="68" class="metric" fill="#C27B00">07.15</text>
      <text x="249" y="68" text-anchor="end" class="tiny" fill="#557581">jsonss</text>
      <circle class="pulse" cx="249" cy="22" r="3" fill="#C27B00"/>
    </g>
    <g transform="translate(28 203)"><rect width="548" height="252" rx="14" fill="#FFFFFF" stroke="#A7C8D2"/><text x="20" y="28" class="micro" fill="#009FC7">LANGUAGE TELEMETRY</text><text x="520" y="28" text-anchor="end" class="tiny" fill="#557581">PRIMARY LANGUAGE / REPOSITORY</text></g>
    <g transform="translate(48 247)">
      <text x="0" y="13" class="row" fill="#0B2732">TYPESCRIPT</text>
      <rect x="112" y="3" width="350" height="10" rx="5" fill="#D8EBF0"/>
      <rect class="bar" style="animation-delay:0.25s" x="112" y="3" width="330.0" height="10" rx="5" fill="#009FC7"/>
      <text x="480" y="13" text-anchor="end" class="row" fill="#557581">666</text>
    </g><g transform="translate(48 281)">
      <text x="0" y="13" class="row" fill="#0B2732">JAVASCRIPT</text>
      <rect x="112" y="3" width="350" height="10" rx="5" fill="#D8EBF0"/>
      <rect class="bar" style="animation-delay:0.33999999999999997s" x="112" y="3" width="330.0" height="10" rx="5" fill="#009FC7"/>
      <text x="480" y="13" text-anchor="end" class="row" fill="#557581">666</text>
    </g><g transform="translate(48 315)">
      <text x="0" y="13" class="row" fill="#0B2732">GO</text>
      <rect x="112" y="3" width="350" height="10" rx="5" fill="#D8EBF0"/>
      <rect class="bar" style="animation-delay:0.43s" x="112" y="3" width="275.0" height="10" rx="5" fill="#009FC7"/>
      <text x="480" y="13" text-anchor="end" class="row" fill="#557581">665</text>
    </g><g transform="translate(48 349)">
      <text x="0" y="13" class="row" fill="#0B2732">HTML</text>
      <rect x="112" y="3" width="350" height="10" rx="5" fill="#D8EBF0"/>
      <rect class="bar" style="animation-delay:0.52s" x="112" y="3" width="275.0" height="10" rx="5" fill="#E83E8C"/>
      <text x="480" y="13" text-anchor="end" class="row" fill="#557581">665</text>
    </g><g transform="translate(48 383)">
      <text x="0" y="13" class="row" fill="#0B2732">PYTHON</text>
      <rect x="112" y="3" width="350" height="10" rx="5" fill="#D8EBF0"/>
      <rect class="bar" style="animation-delay:0.61s" x="112" y="3" width="165.0" height="10" rx="5" fill="#E83E8C"/>
      <text x="480" y="13" text-anchor="end" class="row" fill="#557581">663</text>
    </g><g transform="translate(48 417)">
      <text x="0" y="13" class="row" fill="#0B2732">LUA</text>
      <rect x="112" y="3" width="350" height="10" rx="5" fill="#D8EBF0"/>
      <rect class="bar" style="animation-delay:0.7s" x="112" y="3" width="110.0" height="10" rx="5" fill="#E83E8C"/>
      <text x="480" y="13" text-anchor="end" class="row" fill="#557581">662</text>
    </g>
    <g transform="translate(594 203)"><rect width="578" height="252" rx="14" fill="#FFFFFF" stroke="#A7C8D2"/><text x="20" y="28" class="micro" fill="#E83E8C">RECENT TRANSMISSIONS</text><text x="550" y="28" text-anchor="end" class="tiny" fill="#557581">PUBLIC · ORIGINAL · PUSHED</text></g>
    <g class="boot" style="animation-delay:0.3s" transform="translate(646 247)">
      <circle class="pulse" cx="5" cy="7" r="4" fill="#009FC7"/>
      <path d="M18 7H42" stroke="#009FC7" stroke-opacity=".55"/>
      <text x="52" y="11" class="repo" fill="#0B2732">jsonss</text>
      <text x="306" y="11" class="row" fill="#557581">TYPESCRIPT</text>
      <text x="486" y="11" text-anchor="end" class="row" fill="#557581">2026.07.15</text>
    </g><g class="boot" style="animation-delay:0.4s" transform="translate(646 286)">
      <circle class="pulse" cx="5" cy="7" r="4" fill="#E83E8C"/>
      <path d="M18 7H42" stroke="#E83E8C" stroke-opacity=".55"/>
      <text x="52" y="11" class="repo" fill="#0B2732">agent-inbox</text>
      <text x="306" y="11" class="row" fill="#557581">TYPESCRIPT</text>
      <text x="486" y="11" text-anchor="end" class="row" fill="#557581">2026.05.06</text>
    </g><g class="boot" style="animation-delay:0.5s" transform="translate(646 325)">
      <circle class="pulse" cx="5" cy="7" r="4" fill="#009FC7"/>
      <path d="M18 7H42" stroke="#009FC7" stroke-opacity=".55"/>
      <text x="52" y="11" class="repo" fill="#0B2732">Proxy</text>
      <text x="306" y="11" class="row" fill="#557581">CONFIG</text>
      <text x="486" y="11" text-anchor="end" class="row" fill="#557581">2026.04.16</text>
    </g><g class="boot" style="animation-delay:0.6000000000000001s" transform="translate(646 364)">
      <circle class="pulse" cx="5" cy="7" r="4" fill="#E83E8C"/>
      <path d="M18 7H42" stroke="#E83E8C" stroke-opacity=".55"/>
      <text x="52" y="11" class="repo" fill="#0B2732">lishi-keyboard-theme</text>
      <text x="306" y="11" class="row" fill="#557581">PYTHON</text>
      <text x="486" y="11" text-anchor="end" class="row" fill="#557581">2026.04.06</text>
    </g><g class="boot" style="animation-delay:0.7s" transform="translate(646 403)">
      <circle class="pulse" cx="5" cy="7" r="4" fill="#009FC7"/>
      <path d="M18 7H42" stroke="#009FC7" stroke-opacity=".55"/>
      <text x="52" y="11" class="repo" fill="#0B2732">index</text>
      <text x="306" y="11" class="row" fill="#557581">JAVASCRIPT</text>
      <text x="486" y="11" text-anchor="end" class="row" fill="#557581">2026.03.31</text>
    </g>
    <path d="M28 476H1172" stroke="#A7C8D2"/><text x="28" y="491" class="tiny" fill="#557581">AUTO-SYNC · SOURCE ONLY · COUNT OFFSET +660 · LAST SIGNAL 2026.07.15</text><text x="1172" y="491" text-anchor="end" class="tiny" fill="#557581">github.com/ovws</text>
  </g>
  <rect x="1" y="1" width="1198" height="498" rx="18" fill="none" stroke="url(#accent)" stroke-opacity=".72"/>
</svg>
